<svg width="64" height="64" viewBox="0 0 64 64" fill="none" xmlns="http://www.w3.org/2000/svg">
<rect width="64" height="64" rx="12" fill="#1E3E31"/>
<path d="M20.2032 43V23.5389H25.185V43H20.2032ZM17.4794 27.2662V23.5389H25.185V27.2662H17.4794ZM22.031 21.2093C21.0514 21.2093 20.3227 20.9584 19.8448 20.4566C19.3908 19.931 19.1638 19.2859 19.1638 18.5213C19.1638 17.7089 19.3908 17.0518 19.8448 16.5501C20.3227 16.0483 21.0514 15.7974 22.031 15.7974C23.0107 15.7974 23.7275 16.0483 24.1814 16.5501C24.6354 17.0518 24.8624 17.7089 24.8624 18.5213C24.8624 19.2859 24.6354 19.931 24.1814 20.4566C23.7275 20.9584 23.0107 21.2093 22.031 21.2093ZM38.5244 50.6698C37.5926 50.6698 36.6369 50.6339 35.6572 50.5622C34.7015 50.4906 33.8055 50.395 32.9692 50.2755V46.1181C33.8294 46.2137 34.7493 46.2973 35.7289 46.369C36.7085 46.4645 37.6284 46.5123 38.4886 46.5123C40.0895 46.5123 41.3797 46.3212 42.3593 45.9389C43.3628 45.5566 44.0916 44.9473 44.5456 44.111C45.0234 43.2987 45.2624 42.2593 45.2624 40.993V37.1581L46.3376 34.721C46.2659 36.513 45.8955 38.0421 45.2265 39.3085C44.5575 40.5509 43.6496 41.5067 42.5027 42.1757C41.3558 42.8208 40.0297 43.1434 38.5244 43.1434C37.1864 43.1434 35.9679 42.8925 34.8688 42.3907C33.7936 41.889 32.8617 41.1961 32.0732 40.312C31.3087 39.4279 30.7113 38.3886 30.2812 37.1939C29.8512 35.9993 29.6361 34.721 29.6361 33.359V32.6064C29.6361 31.2445 29.8512 29.9781 30.2812 28.8074C30.7352 27.6127 31.3684 26.5733 32.1808 25.6893C32.9931 24.8052 33.9608 24.1243 35.0838 23.6464C36.2068 23.1685 37.4492 22.9296 38.8112 22.9296C40.412 22.9296 41.7978 23.2761 42.9686 23.969C44.1633 24.6619 45.0951 25.6654 45.7641 26.9795C46.4331 28.2937 46.8035 29.9065 46.8752 31.8179L46.015 31.9613V23.5389H49.9574V40.7062C49.9574 43.0717 49.5512 44.9831 48.7388 46.4406C47.9265 47.8981 46.6721 48.9614 44.9756 49.6304C43.3031 50.3233 41.1527 50.6698 38.5244 50.6698ZM39.958 38.8784C40.9138 38.8784 41.7859 38.6634 42.5744 38.2333C43.3628 37.8032 43.996 37.182 44.4739 36.3696C44.9517 35.5572 45.1907 34.5776 45.1907 33.4307V32.1763C45.1907 31.0772 44.9398 30.1454 44.438 29.3808C43.9602 28.6162 43.327 28.0428 42.5385 27.6605C41.75 27.2543 40.8899 27.0512 39.958 27.0512C38.9067 27.0512 37.9749 27.3021 37.1625 27.8038C36.374 28.2817 35.7528 28.9627 35.2988 29.8467C34.8449 30.7308 34.6179 31.7821 34.6179 33.0006C34.6179 34.1953 34.8449 35.2347 35.2988 36.1187C35.7528 37.0028 36.374 37.6837 37.1625 38.1616C37.9749 38.6395 38.9067 38.8784 39.958 38.8784Z" fill="#F3FAEC"/>
</svg>
