<svg width="74" height="30" viewBox="0 0 74 30" fill="none" xmlns="http://www.w3.org/2000/svg">
<path d="M10.9141 29.6778V29.4282H13.3519V13.0219H7.03652V29.4282H9.47429V29.6778H0.558451V29.4282H3.0375V13.0219H0V12.6851H3.0375V11.7669C3.0375 9.55988 3.23175 7.71138 3.61781 6.22143C4.00387 4.73149 4.55018 3.52257 5.25675 2.59227C5.96331 1.66196 6.81556 0.99572 7.81592 0.598401C8.81628 0.19866 9.91377 0 11.1132 0C12.3127 0 13.2791 0.133249 14.0925 0.399744C14.9059 0.666238 15.5712 1.01026 16.0908 1.43665C16.6104 1.86304 16.9843 2.34757 17.2101 2.89268C17.4359 3.43778 17.55 3.97561 17.55 4.5086C17.55 5.14576 17.3436 5.69813 16.9309 6.16329C16.5181 6.62844 15.9912 6.86102 15.3526 6.86102C14.6072 6.86102 14.0609 6.69386 13.7137 6.36195C13.3665 6.03004 13.1941 5.62303 13.1941 5.14576C13.1941 4.85262 13.2281 4.63458 13.2936 4.4868L13.4927 4.04829C13.5583 3.90293 13.6263 3.73577 13.6918 3.54922C13.7574 3.36268 13.7914 3.11072 13.7914 2.79092C13.7914 1.91392 13.6044 1.26222 13.2305 0.835826C12.8566 0.409435 12.0845 0.198661 10.9117 0.198661C10.4042 0.198661 9.91862 0.285876 9.45244 0.457886C8.98625 0.629896 8.57348 0.903659 8.21413 1.27675C7.85478 1.64984 7.56826 2.13438 7.35459 2.73278C7.14092 3.33118 7.03409 4.0701 7.03409 4.9471V12.6851H17.3485V29.4282H19.7863V29.6778H10.9117H10.9141ZM32.383 29.6778V29.4161H34.8621V16.5541C34.8621 15.1442 34.6023 14.1145 34.0827 13.4628C33.5631 12.8111 32.9561 12.5495 32.2641 12.5495C30.9578 12.5495 29.9526 12.8111 29.246 13.4628C28.5394 14.1145 28.0392 15.0933 27.7479 16.0236V29.4161H30.1856V29.6778H21.3111V29.4161H23.7489V12.9419H21.3111V12.6851H27.7479V15.3743C28.1218 14.2574 28.7628 13.4216 29.6272 12.9444C30.494 12.4647 31.3584 12.3266 32.2641 12.3266C34.3158 12.3266 35.9231 12.9056 37.0813 14.0612C38.2395 15.2168 38.8198 16.8594 38.8198 18.9865V29.4161H41.2989V29.6778H32.383ZM74 28.4422C73.8665 28.8153 73.5338 29.1666 72.9996 29.4985C72.4655 29.8304 71.8147 29.9976 71.0402 29.9976C70.1879 29.9976 69.4352 29.7577 68.7821 29.2805C68.1289 28.8008 67.7356 28.1757 67.6021 27.4053C67.335 28.2557 66.8421 28.9001 66.1234 29.341C65.4047 29.7795 64.5111 30 63.4452 30C62.7799 30 62.1195 29.92 61.4664 29.7602C60.8132 29.6003 60.2207 29.3483 59.6866 29.0019C59.1524 28.6554 58.7202 28.2169 58.3876 27.6863C58.0549 27.1534 57.8874 26.5307 57.8874 25.8112C57.8874 24.8276 58.0938 24.016 58.5065 23.3788C58.9193 22.7417 59.4122 22.2353 59.9852 21.8622C60.5583 21.4891 61.1434 21.2178 61.7431 21.0434C62.3429 20.8714 62.8431 20.7696 63.2413 20.7454C63.5836 20.7066 64.3484 20.5927 64.8413 20.5394C65.3342 20.4861 65.7737 20.4207 66.1598 20.3408C66.5458 20.2608 66.8518 20.1542 67.08 20.021C67.3083 19.8878 67.4199 19.5728 67.4199 19.3596L67.4005 16.5178C67.4005 14.9213 67.1529 13.8456 66.66 13.286C66.1671 12.7287 65.5601 12.4477 64.8413 12.4477C64.0692 12.4477 63.4622 12.6003 63.0227 12.9056C62.5833 13.2109 62.3623 13.6712 62.3623 14.2817C62.3623 14.6281 62.4424 14.9261 62.6027 15.1781C62.7629 15.43 62.8431 15.7304 62.8431 16.0745C62.8431 16.4475 62.6974 16.7867 62.4036 17.092C62.1098 17.3972 61.6315 17.5499 60.9637 17.5499C60.3519 17.5499 59.9051 17.3512 59.6234 16.9515C59.3442 16.5517 59.2034 16.1278 59.2034 15.6747C59.2034 15.3016 59.3297 14.9164 59.5822 14.5191C59.8347 14.1194 60.2013 13.7535 60.6821 13.4216C61.1628 13.0897 61.7553 12.816 62.4619 12.6028C63.1684 12.3896 63.96 12.283 64.8413 12.283C66.8663 12.283 68.4664 12.862 69.6392 14.0176C70.812 15.1732 71.3971 17.0023 71.3971 19.5025V28.0788C71.3971 28.9825 71.7128 29.404 72.4048 29.404C72.752 29.404 73.0579 29.2853 73.325 29.0455C73.5921 28.8056 73.7523 28.5803 73.8057 28.3671L73.9951 28.4374L74 28.4422ZM67.4224 20.1349C66.9683 20.428 66.4366 20.6073 65.8223 20.6727C65.2104 20.7381 64.5961 20.8399 63.9842 20.9707C63.6637 21.024 63.3724 21.1378 63.1053 21.3099C62.8382 21.4819 62.593 21.6878 62.406 22.0585C62.2191 22.4316 62.0734 22.9161 61.9665 23.5145C61.8597 24.1129 61.8063 24.8785 61.8063 25.8088C61.8063 26.6591 61.8718 27.3447 62.0054 27.8632C62.1389 28.3817 62.3113 28.7741 62.525 29.0406C62.7387 29.3071 62.9839 29.4307 63.2655 29.5106C63.5448 29.5906 63.8458 29.6293 64.1639 29.6293C65.1497 29.6293 65.9364 29.3507 66.5216 28.7911C67.1067 28.2314 67.4005 27.5822 67.4005 26.836L67.4199 20.1324L67.4224 20.1349ZM54.9252 24.1807C54.9252 25.0553 54.5415 29.6778 48.7894 29.6778C42.8431 29.6318 43.1709 26.3006 43.1709 25.8766C43.1709 25.4526 43.4161 23.9215 45.1328 23.9215C46.0894 23.9215 46.5556 24.5611 46.5556 25.346C46.5556 26.131 46.0894 26.584 46.0894 27.3011C46.0894 27.7033 45.9073 29.312 48.7894 29.4525C52.298 29.3531 52.7423 27.5919 52.7423 26.3539C52.7423 25.1159 52.4485 23.4951 48.4908 22.3468C44.5306 21.1984 43.7002 19.0277 43.7002 17.78C43.7002 16.2368 43.96 12.283 49.0492 12.283C54.1385 12.283 54.2939 15.5972 54.2939 16.0987C54.2939 16.6002 54.1142 18.0538 52.332 18.0538C51.2612 18.0538 50.9091 17.2252 50.9091 16.5202C50.9091 16.0139 51.385 15.132 51.385 14.7662C51.385 13.0049 50.2099 12.5301 49.0492 12.5301C48.0926 12.5301 45.616 12.5955 45.616 15.0763C45.616 18.5092 49.7582 18.5286 52.1135 19.7618C54.2939 20.8762 54.9252 22.5866 54.9252 24.1856V24.1807Z" fill="#F3FAEC"/>
</svg>
