<?xml version="1.0" encoding="UTF-8" standalone="no"?>
<svg
   xmlns:dc="http://purl.org/dc/elements/1.1/"
   xmlns:cc="http://creativecommons.org/ns#"
   xmlns:rdf="http://www.w3.org/1999/02/22-rdf-syntax-ns#"
   xmlns:svg="http://www.w3.org/2000/svg"
   xmlns="http://www.w3.org/2000/svg"
   width="162.5163mm"
   height="41.255199mm"
   viewBox="0 0 162.51629 41.255201"
   version="1.1"
   id="svg8">
  <defs
     id="defs2"><clipPath
   id="clip0">
  <rect
     x="281"
     y="-1"
     width="712"
     height="715"
     id="rect1155" />
</clipPath>

	
	
	
	
	
	
	
	
	
	
	
	
	
	
	
	
	
	
	
	
	
	
	
	
	
	
	
	
	
	
	
	
	
	
	
	
	
	
	
	
	
	
	
	
	
	
	
	
	
	
	
	
	
	
	
	
	
	
	
	
	
	
	
<clipPath
   id="clipPath3095"
   clipPathUnits="userSpaceOnUse">
  <path
     id="path3097"
     d="M 15,15 H 627 V 645 H 15 Z" />
</clipPath>
<clipPath
   id="clipPath3081"
   clipPathUnits="userSpaceOnUse">
  <path
     id="path3083"
     d="M 15,15 H 627 V 645 H 15 Z" />
</clipPath>
<clipPath
   id="clipPath3049"
   clipPathUnits="userSpaceOnUse">
  <path
     id="path3051"
     d="M 15,15 H 627 V 645 H 15 Z" />
</clipPath>
<clipPath
   clipPathUnits="userSpaceOnUse"
   id="clipPath18">
  <path
     d="M 0,314 H 425.923 V 0 H 0 Z"
     id="path20" />
</clipPath>

	
	
	

	
	
</defs>
  <metadata
     id="metadata5">
    <rdf:RDF>
      <cc:Work
         rdf:about="">
        <dc:format>image/svg+xml</dc:format>
        <dc:type
           rdf:resource="http://purl.org/dc/dcmitype/StillImage" />
        <dc:title></dc:title>
      </cc:Work>
    </rdf:RDF>
  </metadata>
  <g
     id="layer1"
     transform="translate(-1047.4954,-2123.5907)">
    <path
       id="path157"
       style="clip-rule:evenodd;fill:#000000;fill-rule:evenodd;stroke-width:1.0137"
       d="m 1163.6972,2123.5907 c -0.04,0 -0.069,0.028 -0.054,0.09 0.6166,0.4457 0.3786,1.2798 0.4444,1.9159 l -0.3899,-0.3215 c -0.1896,-0.4843 -0.7377,-0.8345 -0.831,-1.3665 -0.6461,0.1244 -1.0588,0.2946 -1.6571,0.551 l -0.084,0.047 c 0.4453,0 0.8244,0.351 1.0435,0.7016 -0.6735,0.038 -1.2715,-0.2281 -1.9347,-0.293 -0.068,-0.066 -0.1231,-0.1437 -0.2295,-0.1327 -0.3327,0.1244 -0.6158,0.3612 -0.9108,0.5893 -0.6543,0.6432 -1.3194,1.3561 -1.6319,2.2082 0.2191,0.038 0.4939,0.031 0.6552,0.1628 -0.359,0.2178 -0.6737,0.5873 -1.0256,0.796 -0.1228,0.4934 -0.1035,1.0526 -0.1318,1.5936 -0.2749,0.4165 -0.6456,0.786 -0.8261,1.2502 -0.5883,1.9056 -0.7398,4.0203 -0.6536,6.1825 -0.1906,0.1793 -0.4385,0.2955 -0.617,0.4363 l 0.019,1.9347 h 0.047 c 0.087,-0.4082 0.5712,-0.6353 0.8643,-0.91 h 0.096 c -0.047,0.4357 -0.1037,0.8709 -0.1131,1.3178 l -0.5511,0.455 c -0.5486,0.4833 -0.084,1.2122 -0.1326,1.8191 0.039,0.162 0.067,0.3986 0.1831,0.437 0.065,-0.237 0.2735,-0.4083 0.4053,-0.6161 0.2374,-0.058 0.4454,-0.2467 0.6634,-0.2751 -0.1213,0.4731 -0.2829,0.9377 -0.4745,1.3926 -0.09,0.06 -0.1976,0.1424 -0.289,0.2377 -0.096,0.1039 -0.1738,0.2237 -0.1921,0.3524 0.4261,2.2471 1.0974,4.4654 1.8672,6.5797 -0.5233,0.8805 -0.8183,1.92 -1.2535,2.8309 -0.061,0.1275 -0.1178,0.2556 -0.1701,0.3882 -0.4361,1.1033 -0.5692,2.3349 -1.1118,3.3957 -0.2181,-0.1528 -0.4543,-0.2669 -0.7008,-0.3712 -1.0274,-0.3405 -2.2134,-0.1222 -2.9618,0.6642 -0.6655,-0.1244 -1.3487,-0.016 -1.8721,0.3402 -0.3731,0.2818 -0.6632,0.6197 -0.8285,1.0158 -0.1119,0.2747 -0.1653,0.5737 -0.1465,0.901 -0.4281,0.2937 -0.6567,0.7489 -0.7977,1.2038 -0.1997,1.0253 0.1607,2.09 0.7488,2.8772 h 16.7725 c -0.2465,-0.2928 -0.4746,-0.7011 -0.6471,-1.0516 -0.3591,-0.5421 -0.1136,-1.3093 -0.1514,-1.9355 0.3418,-0.6889 0.6888,-1.3813 1.0793,-2.0551 0.079,-0.1355 0.158,-0.2688 0.2393,-0.4005 l 0.77,-0.2938 c 0.4077,0 0.7501,-0.2938 1.1386,-0.1905 0.5223,0.5228 0.523,-0.5205 1.0272,-0.5681 1.1764,-0.1512 2.3432,-0.038 3.0066,0.9572 0,0.1323 0.2115,0.1324 0.1628,0.2564 -0.1528,0.046 -0.2956,-0.049 -0.4558,-0.049 -0.7212,-0.1794 -1.567,-0.6361 -2.2782,-0.2279 -0.027,0.1703 -0.063,0.3434 -0.098,0.5136 -0.036,0.1813 -0.067,0.3581 -0.083,0.5282 0.4644,0.1324 0.8536,0.4656 1.2046,0.8254 0.2373,-0.4642 0.7404,-0.6734 1.1867,-0.8254 0.3895,0.085 0.8167,0.097 1.1403,0.3419 0.5983,0.5513 0.3033,1.4891 0.2474,2.1903 0.5396,0.3028 1.1374,0.4753 1.6872,0.7683 -0.2567,0.23 -0.5965,0.3235 -0.9099,0.4379 l -0.9108,-0.1815 c -0.1039,-0.076 -0.2856,-0.075 -0.3231,-0.2076 -0.3034,0.3212 -0.674,0.7483 -0.8636,1.1648 h 13.0032 c -0.1715,-0.3891 -0.3706,-0.6921 -0.608,-1.0516 -0.2666,-0.5694 -0.1602,-1.3474 -0.1896,-1.9543 l 1.2151,-1.8492 c 0.6633,-0.016 1.4149,-0.256 2.135,-0.1318 0.036,-0.016 0.071,-0.035 0.1041,-0.055 0.2993,-0.2066 0.3907,-0.6872 0.8359,-0.6275 0.7962,-0.2167 1.4047,0.1436 2.0031,0.5038 -0.02,0.047 -0.04,0.09 -0.062,0.1245 -0.2505,0.4002 -0.7187,-0.047 -1.0605,0.074 -0.1433,0.1528 0.068,0.3307 0.094,0.503 0.1244,0.1692 -0.1249,0.1503 -0.2083,0.1799 -0.1988,0.028 -0.4167,-0.02 -0.5698,-0.1799 -0.038,-0.049 -0.016,-0.1037 -0.084,-0.1131 -0.1725,0.2827 -0.4183,0.5398 -0.4843,0.8619 0.2172,0.2098 0.5106,0.418 0.6161,0.6845 0.218,0.313 -0.1708,0.5489 -0.2458,0.8245 -0.028,0.055 -0.1149,0.055 -0.1432,0 -0.2008,-0.1134 -0.3702,-0.3989 -0.5893,-0.3239 -0.1907,0.845 0.066,1.6888 -0.047,2.5329 0.3701,0.087 0.806,-0.019 1.2046,0 l 0.162,-1.7833 c 0.1694,-1.1559 0.8549,-2.1238 1.6612,-3.0074 0.8713,-0.5948 1.4331,0.5808 2.0771,0.9881 0.1055,0.019 0.068,0.1322 0.114,0.1986 -0.016,0.1904 -0.2083,0.2653 -0.3411,0.3231 -0.3996,0.1402 -0.6936,-0.2948 -0.9401,-0.551 -0.2362,0.2562 -0.3421,0.5961 -0.6169,0.7968 l 0.094,0.027 c 0.3155,0.3141 0.6172,0.6455 0.6861,1.063 -0.038,0.3779 -0.2286,0.7478 -0.5713,0.9393 -0.2547,-0.4377 -0.4648,-0.9209 -0.6341,-1.3666 0.016,0.021 -0.016,0.028 -0.03,0.049 -0.5232,0.1402 -0.6617,0.7287 -0.7488,1.2038 0.028,0.465 -0.3228,0.6544 -0.2295,1.1184 h 6.7694 c 0.7495,-0.1134 1.5466,-0.094 2.1438,-0.6463 2.5357,0.3902 5.1068,-0.2363 7.0999,-1.6295 1.0518,-0.8491 1.997,-1.8299 2.7608,-2.9008 0.6735,-0.9442 1.2058,-1.8262 1.5497,-2.8829 0.2554,-0.6535 0.458,-1.3318 0.6112,-2.0299 0.7222,-3.2827 0.343,-6.9569 -0.726,-10.0845 h 0.01 c -0.1987,-0.5806 -0.4205,-1.1398 -0.6649,-1.6767 -1.3369,-2.7599 -3.1545,-5.7373 -5.9579,-7.484 -1.5792,-0.9838 -3.0309,-2.5054 -3.9223,-4.0777 -0.4848,-0.4377 -0.95,-1.0149 -1.5758,-1.1192 0.1714,0.2846 0.3599,0.5592 0.4086,0.8905 l -0.038,0.047 c -0.6632,0.019 -1.1863,-0.3317 -1.6416,-0.7602 l 0.5038,-0.4542 c -0.1907,-0.095 -0.4088,-0.1337 -0.6178,-0.1791 -1.9179,-0.2178 -3.4925,0.6632 -5.1904,1.0907 l -0.028,0.094 c 1.0426,0.4642 1.2609,1.6105 1.8695,2.3897 0.1528,-0.1813 0.4083,-0.049 0.6162,-0.068 0.3032,0.019 0.5883,0.2371 0.8815,0.1612 0.016,-0.2553 -0.1311,-0.4543 -0.1799,-0.6813 0.1795,-0.087 0.4003,-0.016 0.599,0 0.5499,0.3212 1.4326,-0.058 1.7744,0.6813 -0.6267,0.039 -1.2146,0.1697 -1.8029,0.3125 0.038,0.2372 0.2747,0.4279 0.2564,0.665 -0.504,-0.2108 -1.0344,-0.3399 -1.5953,-0.4078 l -0.027,0.083 c 0.7119,0.8348 1.6873,1.3281 2.6843,1.623 1.4331,0.3312 2.6951,-0.3503 4.0794,-0.1131 3.4008,1.5553 6.3033,5.1126 7.567,8.4883 0.061,0.1621 0.122,0.3264 0.1782,0.4916 1.058,3.083 1.2575,6.8749 0.1986,10.0886 -0.5638,1.3394 -1.1847,2.5995 -2.1797,3.6887 -0.3762,0.461 -0.7929,0.8735 -1.2453,1.2241 -1.4249,1.1084 -3.1815,1.5962 -4.9909,1.0988 -0.1134,-0.074 -0.3435,-0.095 -0.306,-0.293 0.065,-0.2635 0.1233,-0.5333 0.1749,-0.8058 0.3012,-1.543 0.438,-3.1643 0.359,-4.7834 0,-0.069 3e-4,-0.1398 -0.015,-0.2084 -0.099,-2.3524 -0.5696,-4.4687 -1.4357,-6.5032 -0.5538,-1.1682 -1.2139,-2.4422 -2.0446,-3.5861 -0.9909,-1.3637 -2.2216,-2.5419 -3.8018,-3.1295 -0.9685,-0.2565 -2.1659,-0.3028 -2.8952,0.5038 -0.5233,0.4548 -0.74,1.0707 -0.6649,1.7434 -0.8165,0.5188 -1.7343,0.7982 -2.7332,0.8823 -0.2444,0.022 -0.4961,0.1106 -0.7488,0.109 -0.2424,0.016 -0.4791,-1e-4 -0.7073,-0.03 -1.2049,-0.148 -2.4196,-0.7932 -3.3436,-1.5358 -0.019,-0.4903 -0.049,-0.9575 -0.068,-1.4773 -0.5305,-0.2755 -0.9666,-0.7981 -1.0052,-1.413 l 0.049,-0.047 c 0.3034,0.094 0.5685,0.2457 0.8424,0.4078 -0.1244,-0.7396 -0.2647,-1.4694 -0.6348,-2.1138 -0.342,-0.1433 -0.6854,-0.2558 -1.0068,-0.4281 -0.3702,-0.2462 -0.6078,-0.692 -0.6626,-1.1004 0.3306,0.3243 0.9096,0.2104 1.1664,0.5518 -0.4453,-1.3181 -0.4554,-2.8259 -1.1867,-4.0305 -0.3702,-0.8916 -1.3387,-1.2987 -2.0031,-1.9542 -0.2566,-0.312 -0.3599,-0.7482 -0.8253,-0.7969 -0.3794,-0.095 -0.4085,-0.5217 -0.4745,-0.7952 0.2373,0.027 0.4357,0.1896 0.6365,0.2271 -0.5518,-1.4608 -1.0358,-3.081 -2.5256,-4.0102 l -0.2564,0.1604 c -0.578,0.087 -1.196,0.1243 -1.7752,0.1432 0.2568,-0.3799 0.7126,-0.5398 1.0736,-0.7121 -0.4188,-0.3121 -0.7618,-0.3884 -1.2852,-0.4746 -0.3032,0.305 -0.8509,0.4546 -1.2404,0.5397 l -0.047,-0.036 c -0.016,-0.3406 -0.09,-0.76 0.424,-0.8441 -0.4928,-0.237 -1.3094,-0.1433 -1.8134,0 -0.1433,0.3698 -0.5482,0.7014 -0.5217,1.1371 -0.2922,0.3049 -0.5012,0.7107 -0.8066,0.9295 -0.016,-0.7305 0.3016,-1.4037 0.4355,-2.0186 -0.427,0.1601 -0.861,0.387 -1.2779,0.5877 -0.6744,-0.389 -1.3847,-0.7783 -2.1048,-1.0711 -0.034,-0.015 -0.087,-0.03 -0.127,-0.025 z m -2.5899,2.7641 c 0.1379,-0.01 0.282,0.017 0.4339,0.086 0.3965,0.085 0.7584,0.2741 1.1671,0.3418 0,0.2087 0.046,0.4454 0.2637,0.5226 0.6178,0.1033 0.6956,0.8438 1.0557,1.2502 0.2463,0.189 0.6349,0.066 0.9767,0.1334 0.4656,0.1328 0.9472,0.1888 1.3478,0.4835 0.7496,-0.5308 1.7655,-0.6345 2.7047,-0.5022 0.095,-0.389 0.2576,-0.7695 0.3899,-1.1199 0.238,0.01 0.1035,-0.274 0.3215,-0.3118 0.5041,-0.3222 1.0452,-0.8051 1.7491,-0.5681 0.5314,0.2462 1.2326,0.1878 1.6221,0.6813 l -0.028,0.019 c 0.494,0.4459 0.5985,1.0907 0.9393,1.6205 -0.2567,0.6738 0.01,1.5736 -0.6829,2.0478 l -0.5225,0.455 0.019,0.02 c -0.1987,0.1135 -0.4269,0.1515 -0.6348,0.2271 0.3134,0.8256 0.1236,1.8411 -0.276,2.5695 0.2283,-0.046 0.5032,-0.1049 0.6837,-0.341 v 0.01 c 0.055,0.154 0.012,0.3278 -0.038,0.4908 -0.019,0.058 -0.039,0.1166 -0.054,0.1717 0.1329,0.6626 -0.4275,1.1464 -0.818,1.5912 -0.1816,0.6849 -0.7209,1.4717 -1.4805,1.5945 -0.01,0.085 0.01,0.208 0.068,0.293 1.565,0.018 2.9978,0.4829 4.3073,1.1851 l 0.019,0.6812 c -1.2423,-0.7284 -2.6761,-1.1928 -4.1843,-1.2794 -0.01,0.2756 -0.066,0.5226 -0.1148,0.7789 1.2729,0.5401 2.4961,1.2313 3.5975,2.209 l -0.045,0.7976 c -1.1604,-0.9778 -2.3731,-2.0299 -3.7799,-2.5061 -0.1887,0.2757 -0.3967,0.5796 -0.6633,0.8441 -0.7871,-0.5015 -1.5857,-0.9652 -2.4874,-1.1851 -0.3896,0.086 -0.4099,-0.3216 -0.4745,-0.5689 l -0.064,-0.5486 c 0.5213,-0.152 0.7775,-0.6726 0.9287,-1.1387 0.1906,0.08 0.4268,0.2095 0.6357,0.096 0.1942,-0.1319 0.1816,-0.3507 0.21,-0.5503 -0.2009,-0.6832 -1.036,-0.6537 -1.614,-0.7309 -0.778,-0.057 -1.5763,-0.037 -2.1919,0.3427 -0.1922,0.1408 -0.1029,0.4253 -0.087,0.6137 0.066,0.1525 0.2109,0.1925 0.3605,0.2287 0.1815,-0.01 0.3503,-0.055 0.503,-0.131 -0.039,0.5207 0.2564,0.9653 0.7016,1.2217 0.047,-0.01 0.068,0.03 0.095,0.049 l -0.1604,0.8636 c -0.2271,0.4167 -0.7877,0.2267 -1.1387,0.4354 -0.6643,0.1703 -1.2922,0.4448 -1.8704,0.8156 -0.3417,-0.1884 -0.6075,-0.5127 -0.8651,-0.8156 -0.9575,0.3506 -1.8309,0.8906 -2.6656,1.5269 l -0.8652,0.7008 c -0.085,-0.2471 -0.028,-0.587 -0.047,-0.8798 0.9666,-0.9676 2.2018,-1.3085 3.3297,-1.8973 l -0.047,-0.8172 c -0.4098,-0.1134 -0.8924,-0.01 -1.3194,0.019 -0.997,0.1813 -1.8974,0.5875 -2.7331,1.1386 0.028,-0.2948 -0.1048,-0.7123 0.1986,-0.8635 1.1866,-0.6727 2.5064,-1.0427 3.9882,-0.9955 0.028,-0.076 0.019,-0.2552 -0.049,-0.3418 -0.1035,-0.1884 -0.046,-0.4831 -0.2931,-0.5681 -0.6897,-0.6798 -1.1163,-1.4741 -1.2518,-2.3799 h 0.015 c 0.074,0.046 0.1731,0.029 0.2629,0.029 l 0.03,-0.029 0.015,-0.015 c -0.2749,-0.9483 -0.2749,-2.0659 0,-3.0042 -0.5781,-0.2471 -1.2616,-0.7318 -1.4797,-1.3478 -0.2475,-0.4094 -0.4557,-0.8345 -0.5234,-1.3178 0.2212,-0.5876 0.5433,-1.1277 0.8839,-1.6595 0.1897,-0.1136 0.417,-0.1436 0.6178,-0.2271 0.3415,-0.2196 0.6989,-0.5207 1.1126,-0.5413 z m -0.3117,1.0825 c -0.9006,0.2007 -1.1744,1.1659 -1.3177,1.9339 0.1512,0.8146 1.0732,0.5582 1.5285,1.0231 0.5974,-0.6048 1.319,-1.0035 2.0666,-1.2982 -0.066,-1.071 -1.2617,-1.2605 -2.0031,-1.6303 z m 10.6697,0.1425 -0.8449,0.2669 c -0.4553,0.2654 -0.5994,0.71 -0.7317,1.1639 0.8268,0.4094 1.717,1.2045 2.0316,2.0951 h 0.038 c 0.2081,-0.4549 0.7674,-0.1693 1.0239,-0.455 0.1608,-0.7204 0.22,-1.5903 -0.1318,-2.2367 -0.4453,-0.3211 -0.9005,-0.6073 -1.3853,-0.8342 z m 22.5358,2.4255 c 0.4158,0.1986 0.8256,0.4089 1.1867,0.7504 -0.03,0 -0.06,10e-4 -0.089,0 0.024,0.021 0.049,0.039 0.073,0.062 -0.4066,-0.019 -0.8333,0.2564 -1.1842,0.028 -0.2465,-0.066 -0.5032,0.01 -0.7041,0.1131 -0.2931,-0.018 -0.5305,-0.1303 -0.7781,-0.2547 0.03,-0.01 0.057,-0.024 0.087,-0.033 -0.024,-0.012 -0.048,-0.021 -0.072,-0.033 0.5232,-0.1428 0.9488,-0.5238 1.4813,-0.6356 z m -26.3368,0.1619 c -0.1221,-10e-4 -0.2434,0.011 -0.3484,0.048 -0.095,0.039 -0.017,0.1533 0.02,0.2084 0.676,-0.048 0.3983,0.6916 0.8253,0.9287 0.3244,-0.074 0.7414,-0.019 1.0263,-0.1319 0.049,-0.1702 -0.075,-0.274 -0.1611,-0.3874 -0.494,-0.029 -0.4656,-0.7302 -1.0052,-0.6357 h -8e-4 c -0.1106,-0.014 -0.2336,-0.028 -0.3557,-0.029 z m -2.4963,0.037 c -0.3263,0.027 -0.6489,0.206 -0.9539,0.3053 v 8e-4 c -0.3155,0.1723 -0.6754,0.4563 -0.8156,0.7968 l 1.3007,0.027 c 0.2362,-0.3779 0.4826,-0.7849 0.796,-1.098 -0.1091,-0.033 -0.2185,-0.041 -0.3272,-0.032 z m -7.1764,0.4957 v 1.1102 l -0.015,0.01 v 0.057 l -0.7488,0.4363 0.018,-0.7765 c 0,-0.01 0.01,-0.011 0.014,-0.016 l 8e-4,-0.052 c 0.2465,-0.2532 0.4156,-0.5772 0.7309,-0.7667 z m 39.5395,0.5836 c 0.3215,0.3982 0.637,0.7873 0.7504,1.2909 l 0.1596,0.5014 c -0.017,-0.02 -0.036,-0.039 -0.054,-0.06 l 0.042,0.1286 c -0.2557,-0.314 -0.578,-0.6174 -1.006,-0.682 -0.3418,-0.3728 -0.7035,-0.8172 -1.2047,-0.8644 0.041,-0.019 0.084,-0.03 0.1262,-0.046 -0.038,-0.01 -0.075,-0.018 -0.1139,-0.022 0.3975,-0.1778 0.8453,-0.2175 1.3006,-0.2474 z m -33.4302,0.9344 c -0.8935,0.074 -1.7293,-0.047 -2.5915,0.028 l -0.1424,0.037 c 0.1328,0.2756 0.4448,0.4847 0.7105,0.617 0.057,0.2846 0.3038,0.4542 0.5047,0.6649 0.2647,0.1497 0.5774,0.1289 0.8806,0.064 0.1522,0.01 0.2458,-0.4064 0.3419,-0.094 0,0.4174 0.2271,0.9292 -0.02,1.3283 0.078,0.8247 -0.881,0.7013 -1.2502,1.2242 -0.2661,0.2644 -0.296,0.7482 -0.1432,1.0695 0.3418,-0.1591 0.6548,-0.369 1.0068,-0.4729 0.094,-0.4267 0.475,-0.7478 0.8636,-0.9108 0.048,-1.0517 0.3607,-2.0297 0.389,-3.053 -0.1046,-0.2178 -0.3312,-0.4077 -0.5494,-0.5022 z m 4.5173,0.094 c -0.3408,0.068 -0.703,0.095 -0.9393,0.4281 l -0.1123,0.046 c 0.1506,0.9006 0.1689,1.8488 0.254,2.7779 0.3145,0.2574 0.8746,0.5593 0.9124,1.072 0.4361,0.1499 0.8444,0.3791 1.2054,0.7309 0.2261,-0.2665 0.4356,-0.5321 0.5396,-0.8441 -0.4464,-0.4843 -1.4656,-0.2475 -1.4813,-1.1199 l -0.5885,-0.3899 c -0.1039,-0.5391 -0.064,-1.1277 -0.2075,-1.6596 l 0.1131,-0.1131 c 0.067,0.1611 0.227,0.3046 0.3703,0.4086 0.4087,0.058 0.9195,0.2179 1.2714,-0.1327 0.2272,-0.1621 0.2009,-0.5337 0.5225,-0.5494 0.1328,-0.1337 0.351,-0.1716 0.5038,-0.3134 0,-0.1145 0.1984,-0.1993 0.094,-0.2938 z m -43.8272,0.8733 c -5.0681,0 -9.6654,1.8142 -12.9495,5.109 -3.0163,3.0274 -4.6667,7.1479 -4.6434,11.6008 0.022,4.2654 1.7004,7.7733 5.1367,10.7308 3.4614,2.9583 7.3402,4.2201 12.9763,4.2201 4.695,0 7.3822,-0.6737 11.5072,-2.8853 l 0.722,-0.3915 v -7.9585 c 0,-3.3922 0.4164,-3.9199 3.1791,-4.0314 l 0.4493,-0.017 v -1.1826 h -13.498 v 1.1826 l 0.4492,0.017 c 3.0772,0.1197 3.6586,0.6711 3.6586,3.4755 v 7.3749 c -2.283,1.5046 -3.942,2.0755 -6.0344,2.0755 -3.0965,0 -5.8525,-1.1948 -7.9683,-3.3062 -2.4777,-2.4772 -3.6862,-6.0856 -3.6862,-10.1626 0,-4.3919 1.1702,-8.1387 3.582,-10.5459 1.92,-1.918 4.4695,-2.9831 7.3782,-2.9831 2.5985,0 5.6174,1.1141 7.6875,2.7544 1.6837,1.3768 2.5565,2.7088 3.2158,4.9103 l 0.1009,0.3337 h 1.1525 l -0.8586,-10.3205 h -1.1786 l -0.055,0.4037 c -0.08,0.6019 -0.3169,1.61 -1.0036,1.61 -0.1958,0 -0.6834,-0.091 -1.2331,-0.3435 -2.3876,-1.0335 -5.4817,-1.6702 -8.0863,-1.6702 z m 33.3805,0.359 -0.053,0.079 0.04,-0.012 -0.3923,0.5828 c 0.079,0.9657 -0.3598,1.7648 -0.3443,2.7185 l -0.01,-0.031 c -5e-4,0.032 0,0.064 0,0.097 l -0.5502,-1.7076 c 0.01,-0.1449 0.026,-0.2821 0.054,-0.4159 0.07,-0.3735 0.2203,-0.7092 0.3947,-1.0435 z m -64.828,0.2205 v 1.1941 c 4.6494,-0.02 3.9235,2.6236 3.9834,7.9357 v 9.1094 c 0.039,0.6971 0.3052,1.942 0.3052,1.942 l -19.1801,-20.1388 h -10.2651 v 1.1948 c 3.4088,-0.028 4.5259,1.7232 4.3952,4.7435 l 0.028,2.3335 v 14.3413 c 0,6.0162 -0.6863,6.4788 -4.2006,6.4788 v 1.2429 h 11.1499 v -1.2429 c -3.5092,0.064 -4.1841,-0.5935 -4.0533,-6.0352 v -14.9167 c -0.039,-0.6981 -0.2979,-1.9412 -0.2979,-1.9412 l 23.095,24.1433 1.5228,0.015 v -21.2702 c 0.027,-5.311 -0.5754,-7.9546 4.2129,-7.9357 v -1.1941 z m -45.8481,0.011 v 1.2413 h 1.0092 v 0 c 1.2212,0 2.0721,0.2584 2.6005,0.7862 0.5913,0.5908 0.8563,1.5662 0.8563,3.1629 v 19.9443 c 0,2.7598 -0.5792,3.9907 -3.9972,3.9907 h -0.4688 v 1.2241 h 15.3611 v -1.2184 h -0.4639 c -3.3856,-0.041 -3.9565,-1.2643 -3.9565,-3.9907 v -19.9451 c 0,-1.5917 0.2642,-2.5634 0.8554,-3.1531 0.5335,-0.536 1.3995,-0.796 2.6461,-0.796 h 0.9173 v -1.2413 z m 126.8495,0.3386 c 0.2281,0.5026 0.6934,0.9769 0.4754,1.6132 l -0.086,0.4346 -0.012,0.066 -0.7781,0.2466 0.3866,-2.2953 c 7e-4,0 0,0 0,0 z m -14.1728,0.3345 c 0,0.016 0.015,0.016 0.015,0.016 h -0.015 z m -0.013,0.067 0.015,0.016 h -0.015 z m 15.799,3.7595 c 0.1634,0.2281 0.2286,0.5126 0.4851,0.6829 0.3409,-0.1996 0.3995,0.3703 0.5698,0.5689 0.093,0.2462 0.245,0.474 0.2938,0.7496 -0.01,0 -0.019,0 -0.029,0 0,0.021 0.013,0.04 0.016,0.061 -0.6562,0.2005 -1.0176,-0.4547 -1.3878,-0.8611 0.011,-0.3515 -0.036,-0.789 0.038,-1.1395 0,0 0,0.01 0,0.01 0,-0.024 0,-0.051 0.01,-0.074 z m -12.7915,0.1375 c -0.2019,0.013 -0.411,0.043 -0.6137,0.015 v 8e-4 c 0.01,0.16 -0.1235,0.5392 0.1139,0.5974 l 0.6357,-0.2946 c 0.1613,-0.039 0.3606,-0.096 0.4362,-0.2279 -0.1754,-0.099 -0.3703,-0.104 -0.5721,-0.091 z m 5.4036,0.1758 c -0.068,-0.01 -0.1701,0.019 -0.1433,0.1132 l 1.1403,0.4843 0.1433,-0.5975 z m -2.7714,1.8509 c 0.9132,-0.01 1.8332,0.1466 2.6395,0.407 0.1917,0.1428 0.4381,0.1428 0.5983,0.3597 0,0.023 -0.01,0.044 -0.014,0.067 l 8e-4,8e-4 c -0.015,0.085 -0.037,0.1674 -0.054,0.2515 -0.018,0.085 -0.033,0.1708 -0.054,0.2539 -0.1452,0.5716 -0.3759,1.1075 -0.8018,1.5408 -0.1329,-0.3029 -0.3707,-0.597 -0.503,-0.8807 -0.057,0 -0.088,0.01 -0.1058,0.027 0,0.062 0.026,0.1407 0,0.2026 -3e-4,0.028 -0.01,0.056 -0.022,0.079 -0.059,0.3053 -0.1642,0.5861 -0.1465,0.923 0,0 -0.01,0 -0.013,0.01 2e-4,0.021 0,0.04 0,0.062 -0.3235,0.1501 -0.7021,0.2671 -1.1199,0.2466 -0.017,-0.1327 -0.045,-0.3233 -0.064,-0.4745 -0.1605,-0.2745 -0.1431,-0.6264 -0.2109,-0.9384 l -0.064,-0.068 c -0.101,0.069 -0.1368,0.1743 -0.1595,0.2865 -0.01,0.043 -0.015,0.086 -0.024,0.1278 -0.013,0.079 -0.029,0.1558 -0.064,0.2222 -0.1238,0.2471 -0.3412,0.4453 -0.3711,0.7301 -0.3601,-0.019 -0.7019,-0.1043 -0.9767,-0.3606 l 0.047,-1.0516 c -0.028,-0.033 -0.064,-0.049 -0.1132,-0.049 l -0.5705,0.5494 c -0.4068,-0.5106 -0.5411,-1.221 -0.4403,-1.8671 0,0 0.01,0 0.01,0 0,-0.02 0,-0.041 0.01,-0.061 0.7785,-0.4028 1.6849,-0.5782 2.5981,-0.5877 z m 24.5177,1.4431 c 0.1719,-0.014 0.3425,0 0.4753,0.1156 0.075,0.6464 0.7391,0.3416 1.1762,0.4566 0.219,0.2836 0.3521,0.6341 0.551,0.9482 -0.019,0 -0.039,-0.01 -0.059,-0.015 0.016,0.027 0.028,0.054 0.045,0.081 -0.787,-0.1915 -1.5937,-0.4557 -2.4377,-0.3801 -0.3031,0.1125 -0.6841,0.1035 -0.9124,0.3598 -0.092,-0.1191 -0.073,-0.2612 -0.038,-0.407 0.011,-0.055 0.024,-0.1116 0.039,-0.1677 0.012,-0.052 0.024,-0.1047 0.028,-0.1554 v -8e-4 c 0,0 0,0 0,-0.01 0,-0.019 0.01,-0.039 0.011,-0.058 l -8e-4,-8e-4 c 0.1521,-0.2757 0.3688,-0.5122 0.6356,-0.7016 0.1379,-0.01 0.3116,-0.054 0.4835,-0.068 z m -13.5298,0.1253 c 0.145,-0.01 0.2882,0.026 0.4273,0.1351 0.3125,0.2766 0.5107,0.6556 0.8424,0.8644 -0.02,0.014 -0.039,0.019 -0.059,0.028 0.016,0.011 0.028,0.026 0.045,0.037 -0.2657,0.1816 -0.4468,-0.1312 -0.7317,-0.065 -0.3125,0.03 -0.6925,0.056 -0.9491,-0.1131 -0.1397,-0.1791 -0.1785,-0.4351 -0.3215,-0.6357 0.015,0 0.029,-0.01 0.044,-0.013 -0.011,-0.017 -0.019,-0.036 -0.031,-0.053 0.244,-0.053 0.4916,-0.1729 0.7333,-0.184 z m -5.1928,1.3406 c 0.4555,0.4356 1.3861,0.5037 1.2901,1.3478 0.018,0.4448 0.3905,0.7755 0.7121,1.0907 -0.025,0 -0.049,0 -0.074,0.01 0.02,0.019 0.04,0.039 0.059,0.058 -0.6269,0.1225 -1.1762,-0.2458 -1.5465,-0.7301 -0.323,-0.5035 -0.3053,-1.1381 -0.4549,-1.7084 0.01,0.01 0.022,0.017 0.033,0.026 -0.01,-0.03 -0.011,-0.062 -0.019,-0.092 z m -12.2845,0.049 c 0.2851,0.1408 0.618,0.3223 0.8929,0.5876 l 0.019,0.2279 c 0.352,0.6809 1.0365,1.2309 1.1199,2.0283 -0.01,0 -0.019,-0.01 -0.028,-0.01 0,0.025 0.013,0.048 0.015,0.074 -0.7313,-0.1975 -1.4434,-0.8981 -1.8704,-1.5253 -0.083,-0.4255 -0.2084,-0.8622 -0.1628,-1.3193 0,0 0.01,0.01 0.014,0.01 0,-0.024 0,-0.047 8e-4,-0.071 z m 15.8145,0.2287 0.949,0.796 v 0.066 c 0,-10e-5 -0.01,0 -0.013,9e-4 v 0.064 c -0.6167,-0.018 -1.2906,0.1989 -1.7288,-0.3403 0.014,-0.012 0.031,-0.024 0.045,-0.037 -0.01,-0.011 -0.02,-0.017 -0.029,-0.028 0.228,-0.2004 0.5116,-0.4383 0.7773,-0.5217 z m -13.4411,0.2263 0.9978,0.6348 -0.1131,1.4138 c 0,0 -0.01,-0.01 -0.01,-0.014 l -0.01,0.079 c -0.4291,-0.6361 -0.7398,-1.3083 -0.8831,-2.0478 l 0.036,0.023 c -0.01,-0.03 -0.017,-0.059 -0.023,-0.089 z m 29.0024,0.2116 c 0.1394,-0.011 0.2878,0.021 0.4493,0.1156 0.3034,0 0.5495,0.1223 0.8164,0.2262 0.1795,0.2179 0.38,0.4747 0.5233,0.7309 -0.02,3e-4 -0.042,0 -0.062,0 0.014,0.023 0.033,0.046 0.046,0.069 -0.7394,0.01 -1.6613,-0.3791 -2.2952,0.1994 -0.1988,0.169 -0.4475,0.239 -0.6837,0.3036 -0.076,-0.1459 -0.082,-0.3309 -0.054,-0.5112 0.016,-0.1594 0.065,-0.319 0.1326,-0.4476 0.3713,-0.234 0.7092,-0.6504 1.1273,-0.6837 z m -19.871,0.3109 c 0.2099,0.5947 0.344,1.2323 0.4085,1.8867 0.1138,0.3668 0.7565,0.567 0.9564,0.9083 -0.015,0 -0.037,0.01 -0.053,0.014 0.013,0.017 0.03,0.034 0.041,0.052 -0.4198,0.1328 -1.1687,0.2839 -1.5106,-0.1603 -0.3086,-0.4574 -0.3426,-0.9378 -0.2597,-1.4081 0.068,-0.4489 0.2518,-0.8903 0.4176,-1.2925 z m 8.6747,0.4346 c 0.2952,0.2645 0.6932,0.4843 1.0532,0.6829 -0.028,0.01 -0.058,0.015 -0.087,0.024 0.024,0.014 0.05,0.029 0.074,0.042 -0.5679,0.1894 -1.3561,0.1519 -1.85,-0.2279 l 0.061,-0.035 c -0.015,-0.011 -0.033,-0.019 -0.048,-0.031 z m -21.6397,0.7977 v 0.019 c 0.2931,0.056 0.6244,0.142 0.8913,0.3223 -0.016,0.017 -0.033,0.03 -0.05,0.046 0.011,0.01 0.024,0.012 0.035,0.019 -0.4645,0.4842 -0.9886,0.7481 -1.2542,1.3357 -0.056,-0.312 -0.1599,-0.6819 -0.2434,-0.9767 0,-0.017 0.012,-0.034 0.019,-0.051 0,0 0,-0.011 0,-0.015 0.074,-0.2837 0.3965,-0.4934 0.6064,-0.7 z m 11.2093,0 c 0.078,0.6807 0.1875,1.431 0.4542,2.047 -0.014,-0.01 -0.032,-0.017 -0.047,-0.025 0.012,0.029 0.02,0.062 0.033,0.09 -0.4188,-0.2635 -1.4218,-0.4357 -1.2973,-1.1378 0,0 0.01,-0.01 0.01,-0.01 0,-0.019 0,-0.036 0,-0.056 0.2668,-0.3485 0.5619,-0.5668 0.8448,-0.9083 z m -5.4386,0.067 c 0.2952,0.1875 0.6924,0.1694 0.9775,0.3598 0.055,0.4812 0.2553,1.0325 0.197,1.5065 0,0 -0.01,-0.01 -0.013,-0.012 0,0.025 0,0.052 0,0.077 -0.5689,-0.4833 -1.1556,-1.1168 -1.1745,-1.8655 0.01,0 0.015,0.01 0.022,0.01 0,-0.026 -0.01,-0.05 -0.01,-0.076 z m 28.7387,0.1644 c 0.4453,0.019 0.1131,0.9975 0.748,0.5983 0.2171,-0.1712 0.4542,-0.3319 0.7594,-0.2279 0.5396,0.2745 1.0741,0.8356 1.1387,1.4496 -0.01,-0.01 -0.02,-0.01 -0.03,-0.015 0,0.028 0.013,0.055 0.016,0.083 -0.9099,-0.5115 -1.9468,-0.7206 -2.9904,-0.9091 -0.6248,0 -1.0039,0.6161 -1.6409,0.6161 -0.2271,0.1602 -0.4551,0.3313 -0.7016,0.4525 -0.148,-0.037 -0.048,-0.2165 -0.1326,-0.2921 -0.028,0.01 -0.028,0.037 -0.028,0.064 h -8e-4 c -0.115,-0.2826 -0.066,-0.6622 -0.047,-0.9751 0,3e-4 0.01,-3e-4 0.01,0 0,-0.022 0,-0.046 0,-0.068 0.427,0.039 0.6933,-0.3116 1.0727,-0.455 0.645,0.059 1.2438,-0.1422 1.824,-0.3215 z m -25.2551,0.063 c 0.01,0.3307 -0.011,0.6529 -0.076,0.9564 -0.092,0.4881 -0.3004,0.9286 -0.7195,1.2705 l -0.2743,-1.2526 c 0.01,0 0.015,-0.01 0.024,-0.014 l -0.011,-0.051 c 0.4574,-0.2087 0.6771,-0.4735 1.0565,-0.9092 z m 10.161,0.1563 c 0.089,0.012 0.1732,0.064 0.2515,0.1847 0.5679,0.1134 1.136,0.6537 1.6775,0.8441 0,0.025 -0.018,0.042 -0.033,0.057 0.01,0 0.013,0.01 0.019,0.01 -0.018,0.115 -0.1806,0.1042 -0.2751,0.153 -0.8732,0.1328 -1.707,-0.2474 -2.3612,-0.6365 -0.038,-0.075 -0.1454,-0.1609 -0.1611,-0.2759 0.011,0 0.023,0 0.034,0 -0.01,-0.02 -0.018,-0.041 -0.021,-0.063 0.2989,0.03 0.6034,-0.3042 0.8693,-0.2694 z m 7.2024,0.055 c 0.6277,-0.018 0.9752,0.7835 1.6066,0.8441 0.21,0.1915 0.4578,0.3792 0.5901,0.6356 0.019,0.3607 0.066,0.7012 0.047,1.072 -0.01,0 -0.01,-0.01 -0.015,-0.015 -8e-4,0.027 0,0.053 0,0.08 -0.9108,-0.8256 -1.5274,-1.6829 -2.3734,-2.537 h 8e-4 c 0.023,0 0.044,0 0.067,-0.01 -0.019,-0.019 -0.035,-0.039 -0.054,-0.058 0.045,-0.01 0.088,-0.014 0.1295,-0.015 z m -9.3536,1.0573 c 0.1795,0.1692 0.208,0.407 0.3418,0.5974 0.3399,0.3973 0.7111,0.7774 1.12,1.1086 -0.025,0.01 -0.054,0.01 -0.08,0.011 0.022,0.018 0.043,0.038 0.065,0.056 -0.4279,0.095 -0.9501,0.05 -1.3478,-0.1318 -0.4848,-0.3598 -1.0916,-0.6825 -1.4048,-1.2054 0.013,-0.011 0.027,-0.018 0.04,-0.028 -0.01,-0.012 -0.018,-0.024 -0.025,-0.037 0.3407,-0.2951 0.8447,-0.2837 1.2909,-0.3703 z m 6.0344,0.1799 c 0.3703,0.2756 0.5986,0.6459 0.6837,1.0532 0,0.066 -0.019,0.1282 -0.039,0.188 -0.052,0.2072 -0.1805,0.3814 -0.2678,0.5803 -0.2849,-0.1986 -0.5518,-0.5303 -0.503,-0.9295 -0.016,-0.1746 0,-0.3314 0.033,-0.4842 0.024,-0.1386 0.06,-0.272 0.093,-0.4078 z m -21.3459,0.055 c 0.065,0 0.1303,0 0.1937,0.01 0.085,0.012 0.166,0.037 0.2418,0.082 -0.01,0.075 -0.023,0.1491 -0.042,0.2222 -0.1068,0.4968 -0.4288,0.9477 -0.8163,1.3422 l -0.4273,0.4354 c 0.01,-0.6623 0.1688,-1.2689 0.2759,-1.8866 7e-4,-3e-4 0,-6e-4 0,-9e-4 0,-0.021 0.01,-0.042 0.012,-0.063 0.1649,-0.058 0.3633,-0.1232 0.5592,-0.1368 z m 23.1959,0.315 c 5e-4,3e-4 0,5e-4 0,8e-4 0.4671,0.01 1.0162,0.1133 1.3869,0.4281 0.029,0.2634 0.094,0.5492 0.3703,0.6626 0.786,0.1529 0.7579,1.0012 1.2518,1.4935 0.033,0.049 0.03,0.092 0.014,0.1303 0.021,0.1311 -0.1824,0.2123 -0.2548,0.297 -0.185,-0.028 -0.3093,0.1324 -0.3573,0.2849 v 0.036 c 0.2952,0.1895 0.6075,0.3218 0.8448,0.6349 -0.01,0.7487 -0.1538,1.4415 -0.2279,2.1617 0,2e-4 0,-10e-5 0,0 0,0.023 -0.01,0.044 -0.01,0.067 -0.2668,0.027 -0.2269,-0.3047 -0.2946,-0.4729 -0.1805,-0.6454 -0.2946,-1.2288 -0.4379,-1.8834 -0.3884,-0.9381 -0.9197,-1.8112 -1.2534,-2.7787 -0.2077,-0.4159 -0.6519,-0.757 -1.041,-0.993 -6e-4,0 0,0 0,0 v -8e-4 c 5e-4,3e-4 0,5e-4 0,8e-4 0.041,6e-4 0.085,0.01 0.1277,0.01 -0.039,-0.025 -0.078,-0.053 -0.1155,-0.077 -6e-4,0 0,0 0,0 z m 8.556,0.4867 c 0.074,0 0.1495,0 0.2246,0 0.5009,0.035 1.0137,0.2527 1.4708,0.3597 0.1987,0.019 0.4094,-0.093 0.5697,-0.2458 0.3601,0.1337 0.636,0.4556 1.0256,0.5217 0.096,0.3719 0.1977,0.7293 0.2449,1.1184 -0.01,0 -0.015,0 -0.023,0.01 0,0.02 0.01,0.039 0.011,0.06 -0.4655,0.1915 -0.9019,-0.2357 -1.3673,-0.3223 -0.2092,-0.1043 -0.4009,-0.2658 -0.3329,-0.5201 0,-0.042 0.013,-0.085 0.033,-0.1327 0.01,-0.01 0,-0.015 0,-0.022 0,-0.026 -0.01,-0.052 0,-0.073 -0.3966,-0.2939 -0.8041,0.1052 -1.2046,0.1603 -0.2796,0.104 -0.5897,-0.068 -0.8172,0.175 0.015,0.1218 0.2099,0.1696 0.1962,0.2996 l -0.024,0.01 c 0.01,0.018 0.012,0.037 0.01,0.059 l -0.8245,0.3215 c -0.2869,-0.039 -0.6193,-6e-4 -0.8171,-0.2084 -0.087,-0.2948 -0.1228,-0.6066 -0.1433,-0.9319 0.01,0 0.012,0 0.018,0 0,-0.021 -0.01,-0.04 -0.01,-0.061 0.3612,-0.1418 0.8362,-0.046 1.1021,-0.3695 0.2079,-0.1308 0.4263,-0.189 0.6495,-0.2011 z m -18.6722,0.5095 h 0.2092 l 0.455,0.6626 c 0.3985,0.2269 0.8151,0.418 1.2046,0.6641 0,0.025 -0.016,0.041 -0.03,0.057 0.01,0 0.012,0.01 0.017,0.01 -0.019,0.122 -0.1799,0.1145 -0.276,0.1807 -1.3287,0.2939 -2.2582,-0.5108 -3.2084,-1.2038 0.03,0 0.06,-0.01 0.09,-0.012 -0.025,-0.018 -0.051,-0.037 -0.076,-0.055 0.5517,-0.065 1.1009,-0.1336 1.614,-0.3028 z m -11.6285,0.092 c 0.1239,0 0.2524,0.039 0.3818,0.051 l -0.02,0.065 c 0,1e-4 0,7e-4 0,8e-4 l -0.5299,1.7084 c -0.5325,0.3667 -1.1678,0.2348 -1.824,0.197 0.035,-0.017 0.069,-0.039 0.1042,-0.058 -0.03,0 -0.059,0 -0.09,-0.01 0.7991,-0.39 1.5007,-1.1595 1.8516,-1.9355 0.04,-0.015 0.081,-0.021 0.1221,-0.022 z m 21.35,0.1327 c 0.1052,0.022 0.207,0.1065 0.3003,0.1644 0.1622,0.1986 0.076,0.5006 0.1628,0.7285 0.096,0.3013 0.4026,0.5458 0.337,0.9002 -10e-5,5e-4 0,0 0,0 0,0.025 -0.01,0.049 -0.015,0.076 0,0.022 -0.01,0.044 -0.013,0.067 -0.1714,0.15 -0.3116,0.3607 -0.5307,0.3875 l -0.4932,-0.958 0.131,-1.2999 c 0,-7e-4 0.01,7e-4 0.01,0 l 0.01,-0.066 c 0.035,-0.01 0.071,-0.01 0.1058,0 z m -14.6848,0.078 1.7068,0.4078 c -0.011,0.2462 0.1911,0.3699 0.3899,0.455 0.2849,0.3495 0.616,0.5779 0.9091,0.9091 -0.017,0.01 -0.036,0.016 -0.054,0.024 0.014,0.015 0.029,0.028 0.042,0.043 -0.3904,0.1791 -0.9017,0.4265 -1.347,0.2279 -0.6845,-0.3413 -0.7606,-1.2421 -1.5001,-1.5066 -0.1039,-0.1428 -0.147,-0.3138 -0.1627,-0.4932 l 0.028,0.01 c 0,-0.025 -0.011,-0.048 -0.013,-0.074 z m -4.1966,0.2003 h 0.8449 c -0.01,0.021 -0.02,0.045 -0.029,0.067 h 0.015 c -0.2272,0.5776 -0.5968,1.3182 -1.2722,1.4773 -0.4646,0.1433 -1.0051,0.2298 -1.5082,0.1432 0.025,-0.02 0.052,-0.04 0.077,-0.06 -0.021,0 -0.043,0 -0.064,-0.01 v -8e-4 c 0.3246,-0.2574 0.6663,-0.5416 1.0264,-0.7301 z m 2.896,0.892 c -0.01,0.073 -0.026,0.1444 -0.049,0.2141 -0.1364,0.5167 -0.6048,0.9394 -0.9254,1.3967 -0.5497,0.3038 -1.128,0.5128 -1.7263,0.7032 0.019,-0.03 0.047,-0.059 0.07,-0.088 -0.019,0.01 -0.037,0.014 -0.055,0.02 0.1613,-0.2562 0.5121,-0.475 0.5877,-0.7952 0.4736,-0.3211 0.6268,-0.8257 0.8733,-1.2705 0.4087,-0.2008 0.7859,-0.057 1.225,-0.1799 z m 25.6539,0.2621 c 0.3417,0.023 0.6792,0.091 0.9971,0.1953 0.049,0.608 0.826,0.6643 0.8448,1.2803 l 0.096,0.569 c -0.01,-0.01 -0.018,-0.01 -0.027,-0.014 l 0.014,0.082 c -0.3409,-0.2098 -0.7318,-0.3599 -1.0532,-0.5494 0.01,-0.021 0.01,-0.045 0.013,-0.068 0.01,-0.017 0.01,-0.039 0.011,-0.058 0.01,-0.1329 -0.029,-0.2728 -0.1856,-0.3012 -0.6278,-0.2669 -1.4433,-0.1136 -2.0031,0.1327 -0.2364,-0.028 -0.3801,-0.4472 -0.503,-0.7016 l -8e-4,8e-4 c -0.01,-0.068 -0.056,-0.1132 -0.038,-0.1888 0.01,0 0.014,0 0.02,0 0,-0.021 -0.012,-0.041 -0.01,-0.066 0.2637,-0.056 0.5787,-0.029 0.7968,-0.2279 0.3367,-0.081 0.6823,-0.1049 1.0239,-0.082 z m -5.1163,0.1327 c 0.1042,0.01 0.196,0.044 0.2377,0.1587 0.6278,0.541 0.1532,1.4125 0.2303,2.1145 -0.01,-0.013 -0.012,-0.026 -0.017,-0.039 0,0.035 0,0.071 0,0.105 -0.2577,-0.6545 -0.6082,-1.2779 -0.9783,-1.8859 -0.036,-0.086 -0.076,-0.1616 -0.094,-0.2466 l 0.033,-0.013 c -0.01,-0.018 -0.017,-0.035 -0.021,-0.054 l 0.2954,-0.1148 c 0.091,-0.01 0.2076,-0.032 0.3117,-0.025 z m -5.4638,0.8562 c 0.058,0.024 0.1128,0.1119 0.14,0.1603 0.1103,0.3829 0.3026,0.7938 0.2067,1.2152 -0.01,0.061 -0.024,0.1214 -0.046,0.1824 -0.063,0.4262 0.5623,0.3573 0.5991,0.765 0,0.022 -0.01,0.043 -0.011,0.064 v 9e-4 c -0.013,0.095 -0.033,0.1881 -0.052,0.2816 -0.01,0.031 -0.01,0.063 -0.017,0.094 -0.1007,0.4571 -0.2575,0.8965 -0.3703,1.3511 0,-0.617 -0.2089,-1.1492 -0.569,-1.6132 0,-0.026 0.01,-0.052 0.014,-0.076 0.01,-0.1272 0.1193,-0.2336 0.1514,-0.3492 0,-0.039 -0.015,-0.079 -0.051,-0.1229 -0.2089,-0.2462 -0.7026,-0.3048 -0.6349,-0.7496 0,-0.077 0.01,-0.1472 0.022,-0.2149 0.056,-0.3861 0.4082,-0.6431 0.5616,-0.9873 0.019,-0.01 0.038,-0.01 0.057,-8e-4 z m 2.7421,0.2727 c 0.1827,0.3414 0.02,0.8627 0.1335,1.2518 0.085,0.4216 0.2711,0.9171 0.14,1.3552 -0.014,0.063 -0.035,0.1256 -0.063,0.1863 -0.018,0.1344 0.091,0.2054 0.1978,0.232 0.1339,0.028 0.4546,-0.095 0.3711,0.1791 0,0.05 -0.01,0.092 -0.028,0.1302 l -8e-4,8e-4 c -0.025,0.108 -0.1075,0.1819 -0.1522,0.2645 v 9e-4 c 0,0.014 -0.01,0.026 -0.01,0.041 -0.01,0.022 -0.018,0.043 -0.015,0.068 -0.1988,0.4256 -0.4928,0.7666 -0.7504,1.1566 0.1055,-0.4741 0.276,-1.1089 -0.017,-1.5456 -0.143,-0.1887 -0.599,0.019 -0.5234,-0.3419 0.04,-0.5977 0.2089,-1.2426 -0.2759,-1.6864 -0.046,-0.1436 -0.044,-0.2611 -0.012,-0.3622 0.073,-0.4529 0.7494,-0.5768 1.0052,-0.9295 z m -26.4085,0.6698 c 0.7697,0.2018 1.736,-4e-4 2.2391,0.7301 0.3612,0.2473 0.7979,0.4186 1.0931,0.7317 -0.01,0.023 -0.012,0.04 -0.019,0.059 0,0 0,0 0.01,0 -0.015,0.039 -0.022,0.067 -0.03,0.098 0,0.039 0,0.079 0.015,0.1327 0.1978,0.1691 0.4744,0.2915 0.665,0.481 0.1321,0.3405 0.2502,0.7703 0.1799,1.1549 0,0.036 -0.013,0.071 -0.02,0.1067 v 0.2848 c 0,-0.01 -0.01,-0.016 -0.011,-0.024 v 0.09 c -0.2657,-0.6058 -0.6918,-1.4322 -1.4626,-1.544 -0.3772,-0.2382 -0.6534,-0.6369 -0.91,-0.9873 -0.3214,-0.1602 -0.7301,-0.1506 -1.0426,-0.3411 -0.4654,-0.01 -0.8946,0.198 -1.3682,0.2279 l -0.1147,-0.1806 0.032,-0.04 -0.017,-0.027 z m 33.9259,0.114 c 0.3701,0.7795 1.3583,0.2669 1.7548,0.9295 0.019,0.4761 -0.1322,0.9017 -0.046,1.3657 -0.01,0 -0.014,0 -0.021,0 0,0.024 0,0.047 0.01,0.072 -0.2931,0 -0.2442,-0.3901 -0.4745,-0.5413 -0.3783,-0.5227 -0.9201,-0.7607 -1.5277,-0.7764 -0.3996,0.036 -0.6351,0.4446 -1.0052,0.5485 0,-0.043 0.01,-0.08 0.019,-0.1155 0.015,-0.1153 0.093,-0.202 0.1457,-0.3004 0.027,-0.204 0.017,-0.4444 0.063,-0.6503 0.035,-0.224 0.1225,-0.4154 0.385,-0.4802 z m -22.7337,0.4216 0.5698,1.2526 c -0.01,0.017 -0.018,0.022 -0.033,0.023 l 0.02,0.042 c -0.019,0.066 -0.1432,-0.038 -0.068,0.066 -0.4553,-0.1034 -0.8917,-0.2928 -1.2152,-0.6626 -0.064,-0.1911 -0.113,-0.3992 -0.1318,-0.6055 0.01,5e-4 0.016,-4e-4 0.024,0 0,-0.022 -0.01,-0.044 -0.011,-0.067 0.2648,0.019 0.5599,-0.033 0.8448,-0.049 z m 5.4346,0.072 c 0.1597,-0.019 0.3267,0.04 0.5095,0.2409 0.2648,0.1627 0.5879,0.1523 0.8628,0.2751 0.6927,0.086 0.9404,0.8252 1.1403,1.3642 -0.014,0 -0.031,-0.01 -0.046,-0.01 0.01,0.025 0.021,0.054 0.03,0.078 -0.3985,-0.1134 -0.93,-0.086 -1.1582,-0.5031 -0.1531,-0.1141 -0.3228,-0.3232 -0.5217,-0.1798 -0.5324,0.4544 -1.0264,-0.2675 -1.6612,-0.087 -0.4089,0.152 -0.7993,0.3598 -1.1867,0.5412 l -0.1815,-0.085 c 0,-0.023 0.012,-0.044 0.017,-0.067 v -8e-4 c 0.067,-0.415 0.4187,-0.7106 0.7016,-1.0214 0.6002,0.2698 1.0168,-0.4894 1.496,-0.5462 z m -8.1474,0.5641 0.2548,0.8432 c -0.01,0.01 -0.021,0.01 -0.03,0.015 l 0.015,0.052 c -0.3317,0.2174 -0.8063,0.2571 -1.1866,0.1327 l -0.7122,-0.9279 c 0.024,0 0.05,0.01 0.075,0.01 l -0.06,-0.078 c 0.5417,0.087 1.14,0.141 1.6441,-0.046 z m -9.0451,0.6975 c 0.3407,0.074 0.6637,0.1586 0.9588,0.3207 0.4259,0.095 0.6233,0.5031 0.958,0.7675 0.4078,0.3799 0.9111,0.541 1.3178,0.9108 -0.01,0.237 0.1325,0.4446 0.3434,0.5486 0.6304,0.039 0.4553,0.7208 0.6145,1.1199 l -0.022,0.029 c 0,0.012 0.01,0.025 0.011,0.037 l -0.6837,0.9099 c -0.2669,-0.378 -0.095,-0.938 -0.5234,-1.251 0.01,-0.018 0.021,-0.034 0.031,-0.051 -0.01,0 -0.01,-0.011 -0.016,-0.016 0.06,-0.1486 0.2078,-0.2689 0.2523,-0.4176 0,-0.041 -10e-4,-0.084 -0.02,-0.131 -0.1146,-0.1887 -0.3038,-0.1981 -0.4753,-0.2564 l -0.2735,0.049 c -0.7708,-0.3049 -1.4345,-0.8927 -2.0714,-1.452 -0.4939,-0.1783 -0.9002,0.1145 -1.3283,0.2279 -0.095,-0.075 -0.1703,-0.1978 -0.1986,-0.3207 0.011,-0.01 0.019,-0.019 0.029,-0.028 0,-0.013 -0.013,-0.026 -0.016,-0.039 v -8e-4 c 0.419,-0.2949 0.4754,-1.054 1.1134,-0.9564 z m 33.86,0.5282 c 0.036,-9e-4 0.072,0 0.1082,0.011 0.562,-0.075 0.8644,0.5356 1.3877,0.5356 0.2657,0.1984 0.4166,0.4914 0.4843,0.7952 -0.01,0.2132 -0.043,0.4098 -0.09,0.6031 -0.049,0.2171 -0.11,0.4283 -0.153,0.6511 l -0.796,-0.6641 c 0.01,-0.1621 0.085,-0.4169 -0.076,-0.5413 -0.4757,-0.4731 -1.2537,-0.1602 -1.8623,-0.1807 -0.1744,-0.044 -0.1839,-0.1569 -0.1546,-0.2743 0.01,-0.099 0.064,-0.21 0.094,-0.2938 0.1135,-0.1417 0.1907,-0.3031 0.3215,-0.4354 0.2582,0 0.4871,-0.1995 0.7366,-0.206 z m -12.7908,0.2719 c 0.4462,0.3892 1.2066,0.8247 1.1216,1.5733 0.115,0.8258 0.2653,1.68 0.047,2.5036 -0.01,0.022 -0.01,0.044 -0.014,0.066 h -0.047 c -0.1795,-0.2654 -0.2659,-0.5974 -0.551,-0.796 0.01,-0.023 0.01,-0.044 0.015,-0.067 -5e-4,-4e-4 0,-5e-4 0,-8e-4 0.036,-0.115 0.056,-0.2273 0.072,-0.3386 0.1032,-0.908 -0.3862,-1.7098 -0.5112,-2.5704 l -0.1432,-0.3044 c 0.021,0.018 0.048,0.039 0.07,0.057 z m -4.6678,0.028 0.028,0.1326 c 1.2719,-0.019 2.6486,0.056 3.53,1.0891 l 0.068,0.6641 c -0.01,0 -0.015,-0.01 -0.023,-0.013 l 0.01,0.081 c -0.4188,-0.2827 -1.0272,-0.2379 -1.3486,-0.6634 -0.4067,-0.2173 -0.8161,-0.2261 -1.3202,-0.2466 -0.4168,0.1433 -0.9105,0.1039 -1.3194,0.2751 -0.1603,-0.077 -0.046,-0.2757 -0.2279,-0.3418 -0.6735,0.1904 -1.3473,0.3419 -1.9184,0.7968 h -0.064 v 0 c 0.01,-0.021 0.017,-0.046 0.024,-0.067 h -0.01 c 0.133,-0.3678 0.276,-0.8065 0.4575,-1.1672 0.3895,-0.1227 0.78,-0.3213 1.1867,-0.3402 0.285,-0.1339 0.6263,-0.1986 0.9295,-0.1986 z m 22.0629,0.6006 c 0.1097,0.02 0.1917,0.1358 0.2401,0.2149 0.074,0.3659 0.098,0.7837 0.024,1.1599 -0.036,0.2235 -0.1047,0.4342 -0.2173,0.6128 l -0.682,-0.9295 c 0.01,-0.015 0.016,-0.033 0.026,-0.049 l -0.013,-0.018 c 0.2079,-0.303 0.2464,-0.7106 0.503,-0.9751 0.042,-0.019 0.082,-0.023 0.1188,-0.016 z m -39.4133,0.6837 c -0.019,0.047 0.019,0.067 0.036,0.095 0.077,-0.066 0.2192,-0.066 0.2759,0.02 l 0.095,0.1132 c 0.2759,0.036 0.7693,-0.1035 0.7504,0.3027 0.3317,0.2747 1.1576,0.2372 0.9588,0.9108 0,0.01 -0.01,0.016 -0.01,0.023 0,0.015 0,0.026 -0.01,0.041 -0.024,0.083 -0.076,0.1767 -0.1082,0.2702 -0.019,0.086 -0.017,0.172 0.055,0.2532 0.4088,0.019 1.0059,-0.019 1.225,0.4549 l 0.2564,0.6618 -0.018,0.057 v 0.011 l -0.3898,1.2217 -0.779,-1.9803 c -0.6541,-0.7305 -1.5658,-1.0633 -2.4401,-1.3844 -0.217,-0.095 -0.4159,0.085 -0.634,0.019 v -8e-4 c 0,-0.1047 0.021,-0.2043 0.05,-0.3004 0.067,-0.288 0.2357,-0.5381 0.4696,-0.7406 z m 33.4815,0.1758 c 0.073,0.017 0.1492,0.062 0.2303,0.086 0.2547,0.1501 0.4549,0.2466 0.7683,0.2466 0.01,0.1277 0.01,0.287 -0.03,0.4233 -0.01,0.049 -0.024,0.095 -0.043,0.1383 0.1449,0.1632 0.4299,0.1044 0.6226,0.2149 0.3053,0.2279 0.6279,0.523 0.5885,0.9303 l -0.014,0.014 c -3e-4,0.017 0,0.034 8e-4,0.052 l -0.1587,0.1604 c -0.5041,-0.3312 -1.0633,-0.5405 -1.6344,-0.7016 -0.027,-0.1429 0.049,-0.2843 -0.027,-0.4355 -0.1805,-0.123 -0.3804,-0.2568 -0.6177,-0.1986 -0.2566,0.1497 -0.5969,0.3672 -0.8636,0.2475 0.028,-0.014 0.051,-0.033 0.076,-0.049 -0.021,-0.01 -0.043,-0.01 -0.063,-0.02 0.4549,-0.2271 0.4838,-0.7021 0.9572,-1.0231 0.066,-0.091 0.1349,-0.1022 0.2076,-0.086 z m -15.353,0.4737 c 0.9584,0 1.7256,0.4807 2.5988,0.7016 0.427,0.2928 0.6473,0.7473 0.7024,1.2315 0.209,0.1419 0.6319,0.1419 0.6162,0.455 -0.01,0.014 -0.01,0.029 -0.015,0.043 3e-4,0.01 0,0.016 0,0.025 -0.1623,0.3778 -0.2286,0.7952 -0.3899,1.1842 -0.2758,-0.5694 -0.4655,-1.4605 -1.2534,-1.5928 -0.1056,-0.3505 -0.2276,-0.7306 -0.5714,-0.9393 l -1.0036,-0.1327 -0.01,0.011 c 0.142,0.2994 0.6301,0.5176 0.5298,0.8986 0,0.046 -0.021,0.095 -0.044,0.1457 0.2402,0.3208 0.724,0.3633 0.9026,0.7659 0.2394,0.3222 0.028,0.768 0.096,1.1379 l -0.015,0.01 c 0,0.019 0,0.039 0,0.058 l -0.7317,0.455 c -0.028,-0.7011 0.1709,-1.6609 -0.6161,-2.0682 -0.6552,0.1975 -0.7125,-0.6545 -1.177,-0.9392 -0.1916,-0.1045 -0.2094,-0.4844 -0.4842,-0.3411 -0.494,0.3322 -1.2256,0.094 -1.7296,0.4094 h -0.1099 l -8e-4,-8e-4 c 0.01,-0.021 0.013,-0.046 0.019,-0.068 h -0.01 v -8e-4 c 0.1238,-0.3496 0.1603,-0.8917 0.6552,-0.9295 0.3326,-0.3013 0.7974,-0.1687 1.2355,-0.2743 z m 19.8824,0.3598 c 0.3306,0.2098 0.6252,0.5406 0.7496,0.8912 0,0.02 -0.012,0.04 -0.016,0.06 8e-4,0 0,0 0,0.01 -0.017,0.099 -0.053,0.1973 -0.081,0.2979 -0.021,0.1022 -0.029,0.2071 0.01,0.3182 0.084,0.152 0.2968,0.1524 0.3126,0.3419 -0.01,0.014 -0.016,0.028 -0.023,0.042 0,0.01 0.01,0.015 0.01,0.025 -0.1044,0.1986 -0.2086,0.4064 -0.3613,0.5877 -0.065,-0.6738 -0.7117,-1.1208 -1.0069,-1.7084 l 0.025,-0.051 c 0,-0.01 -0.01,-0.01 -0.01,-0.015 z m -41.7061,0.9539 c -0.043,0.023 -0.08,0.05 -0.1131,0.078 l 0.099,-0.01 c -0.2549,0.1364 -0.3277,0.3722 -0.3744,0.6194 -0.015,0.09 -0.029,0.1823 -0.048,0.2702 0.2283,0.1714 0.7026,0.075 0.6837,0.4932 0.065,0.2783 0.065,0.562 0.01,0.827 -0.048,0.2641 -0.1529,0.5114 -0.3158,0.7187 -0.1785,-0.4366 -0.4936,-0.8814 -0.958,-1.0248 -0.1888,0.2632 -0.2923,0.554 -0.3484,0.8587 -0.085,0.5332 -0.028,1.1067 8e-4,1.6588 -0.01,0.01 -0.011,0.01 -0.016,0.015 10e-4,0.017 0,0.034 0,0.051 -0.2262,0.2371 -0.4927,0.399 -0.7472,0.5682 -0.3382,-0.8797 -0.2644,-1.8743 -0.049,-2.7861 0.073,-0.3207 0.1626,-0.6321 0.2604,-0.9254 0.1623,-0.4752 0.4849,-0.8805 0.7789,-1.299 z m 5.7023,0.093 c 0.01,0.013 0.015,0.026 0.026,0.038 0.01,3e-4 0.016,5e-4 0.024,8e-4 -0.016,-0.014 -0.033,-0.026 -0.05,-0.039 z m -2.8373,0.1831 0.5706,0.1986 -0.044,0.057 0.029,0.01 -0.3687,0.4712 c 0.4584,0.267 1.1335,0.6785 1.0483,1.3129 l -0.065,0.5388 c 0,0 -0.01,0.01 -0.01,0.014 l -0.01,0.051 c -0.3702,0.6069 -0.7122,1.182 -1.2152,1.7109 h -0.064 c -0.025,-0.3485 0.032,-0.6617 0.1017,-0.9743 0.03,-0.1402 0.064,-0.2811 0.095,-0.4232 0.031,-0.1446 0.06,-0.2921 0.078,-0.4461 2e-4,0 0,0 0,-0.01 0,-0.02 0.01,-0.038 0.011,-0.059 0.01,-0.051 0.055,-0.096 0.084,-0.1408 0,-0.016 -0.01,-0.032 -0.029,-0.049 -0.3611,-0.028 -0.6266,-0.2946 -0.9978,-0.2946 -0.2758,0.1803 -0.2662,0.5125 -0.4355,0.7496 -0.352,0.7012 -0.9969,1.2182 -1.1403,2.0136 -0.096,-0.019 -0.047,-0.1697 -0.096,-0.2564 h -8e-4 c 0.024,-0.8082 0.071,-1.5811 0.2441,-2.3066 0.1037,-0.455 0.2547,-0.8921 0.4811,-1.3072 0.4646,-0.5227 1.0628,-0.7982 1.7271,-0.8644 z m 17.6499,0.3866 c 0.043,0 0.084,0.014 0.1221,0.043 0.2181,0.1884 0.4071,0.3381 0.4354,0.643 0.21,0.148 0.4659,-0.019 0.6829,0.1327 0.1513,0.3124 0.2766,0.7711 0.2141,1.0605 0,0.045 -0.014,0.088 -0.026,0.1262 l -0.02,-0.028 -0.049,0.047 0.028,0.019 -0.341,0.3036 c -0.3226,-0.4084 -0.074,-1.1837 -0.6658,-1.4594 -0.4736,0.058 -0.7865,-0.3805 -1.0898,-0.6348 l 0.061,-0.024 c -0.015,-0.014 -0.031,-0.03 -0.046,-0.043 l 0.293,-0.1156 c 0.1285,0.01 0.2728,-0.076 0.4013,-0.07 z m -6.2762,0.3183 -1.251,0.407 c -0.077,0.2461 -0.2019,0.502 -0.2303,0.73 l 0.3891,-0.1139 c 0.1713,0.037 0.3061,0.1805 0.4558,0.2954 -0.084,0.5493 -0.6831,0.6069 -1.0533,0.8441 -0.2869,1.0414 0.6457,1.6878 0.7969,2.5785 h 1.3486 c -0.4939,-0.8055 -0.637,-1.8397 -0.7504,-2.8072 0.058,-0.6545 0.1222,-1.3655 0.2946,-1.9339 z m -17.4553,0.2873 c 0.5982,0.3799 0.7605,1.111 0.6471,1.7361 0,0 0,0 -0.01,0 0,0.023 0,0.046 -0.01,0.069 -0.2301,-0.1235 -0.4937,-0.256 -0.7594,-0.341 -0.083,0.1246 -0.1272,0.2571 -0.1522,0.3939 -0.061,0.4706 0.1171,0.9952 0.033,1.4968 l -0.047,0.4851 c 0,-2e-4 -0.01,0 -0.01,0 l -0.01,0.068 c -0.2728,-0.019 -0.5488,-0.2953 -0.7016,-0.5323 -0.046,-0.7205 -0.1039,-1.405 -0.046,-2.1366 l 0.01,-0.011 c 0,-0.018 10e-4,-0.035 0,-0.054 z m 36.7046,0.3109 c -0.3519,0.066 -0.7208,0.096 -1.0728,0.1791 l 0.2751,0.2759 c 0.133,0.4832 0.067,1.0716 -0.2092,1.4504 -0.3134,-0.237 -0.3796,-0.5962 -0.5884,-0.8627 -0.1522,0.1316 -0.2285,0.3309 -0.3419,0.5021 -0.029,0.9677 0.3525,1.7632 0.7317,2.5981 h 1.0435 c -0.076,-0.8896 -0.2113,-1.7439 -0.2271,-2.5981 -0.05,-0.5876 0.2363,-1.0423 0.3891,-1.5448 z m -18.0235,0.4249 c -0.2109,0.1997 -0.3246,0.5235 -0.4949,0.7797 -0.039,1.0132 0.2933,2 0.4941,2.9383 h 0.9856 c 0.01,-1.0041 0.059,-1.9528 0.1327,-2.9204 l -0.1327,0.028 -0.9091,-0.8261 z m 2.6461,0.2303 c -0.3601,0.046 -0.4354,0.446 -0.617,0.6821 l -0.3402,2.8064 h 0.958 c 0.2079,-0.5977 0.4375,-1.2604 0.5713,-1.8956 0.1134,-0.4165 0.4447,-0.9493 0.1132,-1.3658 -0.1917,-0.1811 -0.4288,-0.2271 -0.6853,-0.2271 z" />
  </g>
  <style
     type="text/css"
     id="style824">
	.st0{fill:#FFFFFF;}
	.st1{fill:#E31937;}
	.st2{fill:#0078AE;}
	.st3{fill:#E11B22;}
	.st4{display:none;}
	.st5{display:inline;}
	
		.st6{fill:none;stroke:#E8128C;stroke-width:1.5;stroke-miterlimit:10;stroke-dasharray:4.6183,4.6183,4.6183,4.6183,4.6183,4.6183;}
</style>
</svg>
