<svg width="115" height="30" viewBox="0 0 115 30" fill="none" xmlns="http://www.w3.org/2000/svg">
<g clip-path="url(#clip0_2041_5578)">
<path d="M114.966 11.2498C114.89 12.2324 115.072 13.3344 114.966 14.2965C114.83 15.5304 114.157 17.9677 113.377 18.9638C111.475 21.3913 105.58 21.7718 104.062 18.9136C103.057 17.021 104.06 11.7155 105.56 10.1971C107.756 7.97518 113.541 8.04339 114.966 11.2498ZM109.109 11.7685C107.719 12.0691 107.343 14.895 107.274 16.0877C107.123 18.6991 110.102 18.3509 110.802 16.4619C111.497 14.589 112.263 11.0865 109.108 11.7676L109.109 11.7685Z" fill="#F3FAEC"/>
<path d="M114.966 23.4375V24.1411C114.43 25.7662 111.838 24.9613 110.379 24.9577L110.636 23.451L114.966 23.4375Z" fill="#F3FAEC"/>
<path d="M101.909 9.40531C102.026 9.73107 101.934 10.064 101.909 10.3933C101.669 13.4122 100.523 19.6141 99.7042 22.554C99.0997 24.7239 98.1176 25.3835 95.7989 25.5558C94.7911 25.6303 90.5873 25.2345 89.8753 24.732C89.2212 24.2698 90.2088 22.711 90.1234 22.0308C91.5354 22.344 94.1361 23.0861 95.5013 22.6895C96.2178 22.4813 96.5063 20.4747 96.6083 19.7783C96.6928 19.1986 96.5247 19.5396 96.2362 19.6536C89.992 22.1241 89.7504 18.4233 90.9153 13.5468C91.3994 11.5214 91.8192 9.83517 94.0874 9.12891C96.6524 8.32933 99.3753 8.70714 101.909 9.40531ZM98.08 11.7215C96.9923 11.6802 95.8081 11.6003 94.9262 12.3461L93.9781 17.3437C98.2205 17.8552 97.1879 14.4514 98.08 11.7215Z" fill="#F3FAEC"/>
<path d="M56.5654 9.39624L54.626 20.5931L51.6551 20.6406L51.5228 19.9209C49.7093 20.8524 45.601 21.8826 45.0682 19.046C44.7366 17.2799 45.7875 11.646 47.0498 10.3008C49.1352 8.07975 53.8893 8.70793 56.5654 9.39534V9.39624ZM50.9798 11.7734C48.6115 12.1701 49.3373 15.5165 48.6427 17.2503L49.0286 17.7851C49.6478 17.9789 51.4346 17.2736 51.7139 16.7073C51.9215 16.2856 52.5719 12.7283 52.4993 12.3119C52.3624 11.5249 51.6339 11.664 50.9798 11.7734Z" fill="#F3FAEC"/>
<path d="M65.7556 20.6246C65.447 20.3275 67.1281 13.5001 67.2053 12.303C67.2503 11.6111 66.3647 12.1145 65.9091 11.9198L65.5701 11.612L66.1066 9.13159L67.9246 8.90545C67.83 4.10975 71.4266 2.8175 75.6515 4.34487L74.9028 7.01463C72.7862 6.73733 71.399 6.18274 71.5442 8.90634C71.6333 8.99429 73.624 8.84622 74.0834 8.90634C74.4325 8.95121 74.4885 8.77263 74.4297 9.24466C74.3259 10.0766 73.8758 11.0816 73.6838 11.9225L70.823 11.9548L69.3734 20.6246H65.7547H65.7556Z" fill="#F3FAEC"/>
<path d="M42.1146 5.86133L41.6323 8.9062C41.7159 8.98876 43.5018 8.85056 43.9308 8.9062C44.2799 8.95107 44.3359 8.77249 44.2771 9.24452C44.1733 10.0764 43.7232 11.0815 43.5312 11.9232L40.912 11.9556L39.9465 17.8111L42.1026 17.5858L42.7852 19.8159C41.4559 20.8389 37.8593 21.4635 36.6981 20.1479C35.3522 18.6232 37.3108 14.0492 37.2952 12.0731L35.6343 11.584L36.0982 8.91876L38.0173 8.9071L38.4822 6.19426L42.1173 5.86133H42.1146Z" fill="#F3FAEC"/>
<path d="M61.6548 20.6252H58.0371L60.9447 4.23246L64.4237 3.75684L64.6993 4.23515L61.6548 20.6252Z" fill="#F3FAEC"/>
<path d="M34.3969 4.6875L31.3809 20.6253H27.8835L30.8986 4.6875H34.3969Z" fill="#F3FAEC"/>
<path d="M79.5073 8.9046L79.6294 10.0802C80.6841 9.77058 81.4383 8.74037 82.6418 8.90549L82.6041 11.7978L79.1426 13.825L77.9483 20.3994L74.439 20.6255L76.3415 9.27432L79.5073 8.9046Z" fill="#F3FAEC"/>
<path d="M83.1232 20.6261L85.0791 9.16544L88.6702 8.67188L86.6316 20.4C86.277 20.8899 83.8481 20.5041 83.1223 20.6261H83.1232Z" fill="#F3FAEC"/>
<path d="M89.6367 3.75122L88.9293 7.39824L85.2969 7.96809L86.0116 4.32914C86.3047 4.03031 89.4952 3.61841 89.6367 3.75122Z" fill="#F3FAEC"/>
<path d="M106.522 23.4375L106.282 24.8437H101.939L102.181 23.4375H106.522Z" fill="#F3FAEC"/>
<path d="M10.0329 0L17.3832 6.56895L18.2449 13.9572L18.0464 14.9354L12.325 26.0174C12.1366 26.0174 12.0218 25.3596 11.9887 25.1711C11.0967 20.1986 10.1321 12.8651 9.79494 7.84864C9.62315 5.28926 9.91712 2.57553 9.79218 0H10.0338L10.0329 0Z" fill="#F3FAEC"/>
<path d="M10.9975 29.7633L3.39272 26.4905L6.83377e-05 19.8067C-0.0146304 19.4603 2.34635 13.9906 2.70279 13.3858C3.95954 11.2509 6.63838 9.2138 7.98331 7.03223L10.9975 29.7633Z" fill="#F3FAEC"/>
<path d="M13.892 29.9996V25.4292C13.892 25.0038 18.0288 19.4283 18.523 18.2105C19.2929 16.3152 19.2111 13.728 19.6833 11.7188C19.9846 11.7385 20.0765 12.0526 20.2106 12.259C20.8712 13.2757 22.5689 16.8483 22.5937 17.9269C22.6855 21.9329 21.709 24.0203 18.7187 26.6039C17.2498 27.8737 15.4446 28.833 13.8911 29.9996H13.892Z" fill="#F3FAEC"/>
</g>
<defs>
<clipPath id="clip0_2041_5578">
<rect width="115" height="30" fill="white"/>
</clipPath>
</defs>
</svg>
