<svg width="152" height="30" viewBox="0 0 152 30" fill="none" xmlns="http://www.w3.org/2000/svg">
<path fill-rule="evenodd" clip-rule="evenodd" d="M18.2213 14.8555C19.1999 13.9534 20.3079 12.4622 20.3079 10.5652C20.3079 7.26983 18.3514 3.77154 13.2195 3.77154H2.2356V27.3378H14.6405C18.48 27.3378 21.2115 23.8403 21.2115 20.729C21.2115 18.0769 19.8458 15.9967 18.2213 14.8555ZM7.69954 8.89H12.3142C13.3488 8.89 14.1232 9.99501 14.1232 11.0992C14.1232 12.2593 13.2739 13.2904 11.8529 13.2904H7.69954V8.89ZM12.0563 22.5513H7.70033V17.7466H12.2409C13.8653 17.7466 14.7698 19.053 14.7698 20.1399C14.769 21.2433 13.9938 22.5513 12.0563 22.5513ZM33.4871 3.31145C28.1706 3.31145 22.5773 7.60173 22.5773 15.4257C22.5773 22.6063 27.3765 27.7248 33.4871 27.7248C39.5976 27.7248 44.415 22.6063 44.415 15.4257C44.4158 7.60173 38.8225 3.31145 33.4871 3.31145ZM33.4871 22.3491C30.3675 22.3491 28.0421 19.1088 28.0421 15.2424C28.0421 11.4862 31.0875 8.76101 33.4871 8.76101C35.9056 8.76101 38.951 11.4862 38.951 15.2424C38.9518 19.1088 36.6066 22.3491 33.4871 22.3491ZM58.4451 13.1064C54.5685 12.5173 52.2793 12.0021 52.2793 10.253C52.2793 8.94584 52.9811 8.11767 54.7349 8.11767C56.4327 8.11767 58.5744 9.01977 59.9402 9.9958L63.1338 6.24032C61.0481 4.41724 56.7654 3 55.1962 3C49.6763 3 46.2255 6.29537 46.2255 10.5668C46.2255 14.9853 49.2528 17.0286 52.2801 17.4894C55.6583 18.0046 58.0587 18.7227 58.0587 20.4167C58.0587 21.7608 56.6369 22.4789 55.0676 22.4789C52.5387 22.4789 50.7116 21.2457 49.1605 19.6255C47.5361 21.2457 45.5237 23.3802 45.5237 23.3802C47.462 25.6634 49.9909 27.6705 54.6063 27.6705C60.8454 27.6705 64.1684 23.252 64.1684 20.0848C64.1677 16.1257 61.4353 13.5484 58.4451 13.1064ZM76.9416 8.76101C78.7497 8.76101 79.6187 9.73704 81.1675 11.4862L85.6536 8.4299C83.4385 5.13452 80.7251 3.12741 76.6269 3.12741C70.7939 3.12741 65.9198 8.50383 65.9198 15.4815C65.9198 22.4781 70.7939 27.8538 76.6269 27.8538C80.7251 27.8538 83.4393 25.8466 85.6536 22.5513L81.1675 19.495C79.6179 21.2441 78.7497 22.2202 76.9416 22.2202C73.9505 22.2202 71.5699 19.6979 71.5699 15.4815C71.5699 11.2833 73.9505 8.76101 76.9416 8.76101ZM100.994 12.0013H93.8499V3.77154H88.054V27.337H93.8499V17.948H100.994V27.337H106.771V3.77154H100.994V12.0013ZM144.245 9.75513C143.602 9.03629 142.841 8.43225 141.994 7.96902V12.1303H133.354V7.96902C132.513 8.42679 131.758 9.02478 131.12 9.73704C129.662 11.3572 128.813 13.4744 128.813 15.6837C128.813 17.8937 129.662 20.0282 131.12 21.6492C131.753 22.3717 132.509 22.9764 133.354 23.4353V19.1458H141.994V23.4353C142.841 22.9723 143.602 22.3682 144.245 21.6492C145.704 20.0282 146.553 17.8937 146.553 15.6837C146.553 13.4744 145.703 11.3572 144.245 9.75513ZM131.12 19.7333C130.363 18.517 129.961 17.115 129.957 15.6837C129.958 14.2461 130.361 12.8373 131.12 11.6152C131.438 11.0998 131.816 10.6238 132.246 10.1971L132.283 21.2072C131.84 20.7618 131.45 20.2673 131.12 19.7333ZM141.993 17.9849H133.353V13.3274H141.993V17.9849ZM143.082 21.2072L143.1 10.1971C143.542 10.6184 143.926 11.0951 144.245 11.6152C145.004 12.8373 145.406 14.2461 145.408 15.6837C145.408 17.1017 144.983 18.5182 144.245 19.7333C143.915 20.2674 143.525 20.762 143.082 21.2072Z" fill="#F3FAEC"/>
<path fill-rule="evenodd" clip-rule="evenodd" d="M144.245 5.5948C142.298 4.34081 140.028 3.67569 137.71 3.67971C135.274 3.67971 133.022 4.39777 131.12 5.63098C127.835 7.78517 125.656 11.4856 125.656 15.6838C125.656 19.8813 127.835 23.5825 131.12 25.7359C133.022 26.9691 135.275 27.7061 137.71 27.7061C140.11 27.7061 142.361 26.988 144.245 25.7729C147.568 23.6195 149.765 19.8994 149.765 15.6838C149.765 11.4675 147.568 7.74898 144.245 5.5948ZM144.245 24.2998C142.367 25.7254 140.071 26.4954 137.71 26.491C135.327 26.4942 133.01 25.7108 131.12 24.2628C128.536 22.2746 126.856 19.1641 126.856 15.6838C126.856 12.2036 128.536 9.0923 131.12 7.12294C133.004 5.66201 135.324 4.87135 137.71 4.87673C140.165 4.87673 142.417 5.70569 144.245 7.06789C146.866 9.05613 148.547 12.1863 148.547 15.6846C148.547 19.1814 146.866 22.3116 144.245 24.2998Z" fill="#F3FAEC"/>
</svg>
